<svg width="485" height="204" viewBox="0 0 485 204" fill="none" xmlns="http://www.w3.org/2000/svg">
<path d="M53.5001 2.60022C53.5001 11.3002 53.5001 20.1002 53.5001 28.8002C53.2001 28.9002 52.9001 29.0002 52.7001 29.0002C51.9001 26.9002 51.4001 24.7002 50.4001 22.8002C47.8001 17.8002 45.7001 12.4002 42.1001 8.20022C36.1001 1.10022 25.4001 1.00022 19.4001 7.10022C12.9001 13.6002 12.8001 23.8002 20.0001 30.2002C24.0001 33.8002 29.1001 36.2002 33.9001 38.9002C37.6001 41.1002 41.7001 42.7002 45.3001 45.0002C57.7001 52.8002 62.3001 65.6002 57.6001 78.6002C53.0001 91.5002 40.5001 98.9002 26.1001 96.7002C21.2001 96.0002 16.4001 94.5002 11.8001 92.7002C8.1001 91.3002 4.9001 90.3002 1.6001 95.2002C1.6001 85.0002 1.6001 76.1002 1.6001 67.2002C1.9001 67.1002 2.3001 67.0002 2.6001 66.8002C3.2001 68.3002 3.6001 69.9002 4.3001 71.4002C7.1001 76.8002 9.2001 82.8002 13.0001 87.5002C20.3001 96.4002 32.7001 96.9002 40.0001 89.7002C47.2001 82.6002 47.1001 68.9002 39.1001 61.7002C35.0001 58.0002 29.8001 55.4002 25.0001 52.5002C22.0001 50.7002 18.8001 49.3002 15.9001 47.4002C4.5001 40.1002 1.0001 27.7002 6.6001 15.4002C11.9001 3.90022 24.4001 -1.89978 36.5001 1.60022C38.9001 2.30022 41.2001 3.20022 43.5001 4.10022C47.1001 5.60022 50.5001 7.20022 53.5001 2.60022Z" fill="black"/>
<path d="M117.3 80.1001C116.3 85.8001 113.3 90.2001 108 93.0001C97.7999 98.4001 81.5999 96.1001 73.4999 88.1001C64.4999 79.2001 62.3999 63.3001 68.5999 51.5001C74.2999 40.7001 86.3999 34.9001 98.8999 37.1001C109.2 38.8001 116 47 116 58.2C103.3 58.2 90.4999 58.2 77.8999 58.2C75.0999 70.5 80.4999 83.9001 89.9999 88.8001C99.5999 93.8001 112 90.7001 115.2 80.9001C115.4 80.4001 115.8 79.9001 116.1 79.4001C116.5 79.6001 116.9 79.9001 117.3 80.1001ZM105.4 55.3001C105.3 45.3001 99.7999 38.2001 92.3999 38.3001C84.8999 38.3001 78.0999 46.5001 78.2999 55.3001C87.1999 55.3001 96.0999 55.3001 105.4 55.3001Z" fill="black"/>
<path d="M357.9 58.1C345.3 58.1 332.8 58.1 319.6 58.1C318.3 68.2 319.9 77.4 326.7 84.7C332.3 90.7 339.8 93.3 347.6 90C352 88.1 355.4 83.8 358.8 81C359.4 85.4 354.9 91.9 347.7 94.1C336.8 97.5 326.2 97 317 89.5C307.9 82 305.9 71.7 307.8 60.5C310.6 44.2 324.8 34.4 341 37.2C351.5 38.8 358.7 47.6 357.9 58.1ZM320.5 55.2C329.5 55.2 338.6 55.2 347.7 55.2C347.3 44.8 341.8 38 334.3 38.3C326.9 38.5 320.2 46.6 320.5 55.2Z" fill="black"/>
<path d="M302.7 82C301.5 91.8 293.8 96.6 282.3 95.9C264 94.7 253.8 82.7 255.3 64.1C256.6 47.2 270.7 35.1 287.8 36.9C292.6 37.4 297.5 39.8 301.8 42.2C303.3 43.1 303.7 46.8 303.6 49.2C303.6 50.2 300.6 52.2 299.6 51.9C297.5 51.3 295.7 49.4 293.9 48C293.4 47.6 293.4 46.8 293.1 46.2C289.6 37.3 283.2 35.8 275.8 42.2C263.3 53 264.5 79.8 277.9 89.5C286.5 95.6 296.3 93.4 301.5 84.1C301.9 83.2 302.3 82.6 302.7 82Z" fill="black"/>
<path d="M145 94.2001C136.3 94.2001 126.7 94.2001 117.2 94.2001C127.3 91.8001 126.3 84.0001 126.4 76.6001C126.4 69.3001 126.4 61.9001 126.4 54.6001C126.4 47.8001 126.1 41.3001 116.8 40.3001C117 39.9001 117.2 39.5001 117.4 39.0001C123.1 38.2001 128.8 37.4001 134.7 36.6001C135.3 39.7001 135.7 42.1001 136.2 45.1001C140.6 39.9001 145.6 36.7001 151.9 36.7001C154.6 36.7001 157.9 37.0001 159.9 38.5001C161.4 39.6001 162.2 43.5001 161.4 45.2001C160.1 48.1001 157 47.5001 154.5 45.8001C154.2 45.6001 154 45.3001 153.8 45.1001C146 38.0001 139.8 39.3001 138.5 49.8001C136.9 61.7001 137.1 74.0001 137.7 86.1001C137.9 89.0001 142.6 91.6001 145 94.2001Z" fill="black"/>
<path d="M198.6 82.9999C202.8 71.6999 206.7 61.5999 210.3 51.3999C212.9 43.9999 212.2 42.5999 205.3 37.8999C211.9 37.8999 217.9 37.8999 223.9 37.8999C215.4 42.0999 213.6 50.4999 210.6 58.0999C206.2 68.9999 202.1 80.0999 197.7 91.0999C197.1 92.4999 195.4 93.3999 194.3 94.5999C193.3 93.4999 191.8 92.4999 191.3 91.1999C185.5 77.1999 180 63.1999 174.3 49.1999C172.5 44.7999 171.2 39.8999 165.6 38.0999C173.9 38.0999 182.2 38.0999 190.2 38.0999C188.6 40.2999 185.9 42.3999 185.5 44.7999C185.1 47.6999 186.4 50.9999 187.4 53.8999C190.8 63.0999 194.5 72.3999 198.6 82.9999Z" fill="black"/>
<path d="M373.1 112C373.1 112 243.5 111.9 181.5 111.9C179.9 111.9 178.2 111.9 176.6 111.9C176.5 112.6 180.7 116.1 184.5 116.1C245.4 116.2 373.1 116.1 373.1 116.1" fill="black"/>
<path d="M228.4 39.0001C234.6 38.2001 240.7 37.5001 247.5 36.6001C247.5 46.1001 247.5 55.0001 247.5 64.0001C247.5 68.5001 247.6 73.0001 247.5 77.5001C247.3 84.8001 247.1 92.0001 256.8 94.2001C247.2 94.2001 237.5 94.2001 227.8 94.2001C227.9 93.8001 227.9 93.3001 228 93.3001C234.9 92.0001 236.9 90.3001 237.2 79.7001C237.4 71.0001 237.2 62.4001 237.3 53.7001C237.3 47.3001 236.3 41.6001 228.2 40.4001C228.1 39.9001 228.3 39.4001 228.4 39.0001Z" fill="black"/>
<path d="M86.8002 116.1C59.5002 116.3 27.5002 116.2 0.200195 116.1C0.200195 116.1 0.200195 114.7 0.200195 114V112C29.2002 111.9 62.4002 111.9 91.4002 111.9C92.0002 111.9 95.3002 111.8 95.9002 111.9" fill="black"/>
<path d="M241.7 26.4002C238 26.1002 235.9 24.0002 236 20.3002C236 16.5002 238.4 14.5002 242 14.3002C245.4 14.1002 248.5 17.4002 248.1 20.7002C247.7 24.5002 245.5 26.4002 241.7 26.4002Z" fill="black"/>
<path d="M105.4 55.2999C96.1002 55.2999 87.2002 55.2999 78.3002 55.2999C78.1002 46.4999 84.9002 38.2999 92.4002 38.2999C99.8002 38.1999 105.3 45.1999 105.4 55.2999Z" fill="white"/>
<path d="M320.5 55.2001C320.2 46.6001 326.8 38.5001 334.2 38.3001C341.7 38.0001 347.2 44.8001 347.6 55.2001C338.6 55.2001 329.6 55.2001 320.5 55.2001Z" fill="white"/>
<path d="M464.7 109.8H479.2V138.7H464.7V109.8ZM439.7 124.3L438.9 124.6C438.9 124.6 443.9 128.8 443.9 129.1C444.2 129.4 444.5 129.4 444.2 130.2C443.9 131 443.6 131.9 443.6 131.9C443.6 131.9 448.1 131.1 448.6 130.8C449.2 130.8 449.4 130.8 449.4 131.4C449.4 132 449.1 136.7 449.1 136.7H450.5C450.5 136.7 450.2 131.7 450.2 131.4C450.2 130.8 450.5 130.8 451 130.8C451.6 130.8 456 131.9 456 131.9C456 131.9 455.7 130.8 455.4 130.2C455.1 129.4 455.4 129.4 455.7 129.1C456 128.8 460.7 124.6 460.7 124.6L459.9 124.3C459.3 124 459.6 123.7 459.6 123.5C459.6 123.3 460.4 120.4 460.4 120.4C460.4 120.4 458.2 121 457.9 121C457.6 121 457.3 121 457.3 120.7C457.3 120.4 456.7 119.3 456.7 119.3C456.7 119.3 454.2 122.1 453.9 122.4C453.3 123 452.8 122.4 453.1 121.8C453.1 121.2 454.5 115.4 454.5 115.4C454.5 115.4 453.1 116.2 452.6 116.5C452 116.8 451.8 116.8 451.8 116.2C451.5 115.6 449.9 112.6 449.9 112.3C449.9 112.3 448.2 115.6 448 116.2C447.7 116.8 447.4 116.8 447.2 116.5C446.6 116.2 445.3 115.4 445.3 115.4C445.3 115.4 446.7 121.2 446.7 121.8C446.7 122.4 446.4 122.6 445.9 122.4L443.1 119.3C443.1 119.3 442.8 120.1 442.5 120.4C442.5 120.7 442.2 121 441.9 120.7C441.3 120.7 439.1 120.1 439.1 120.1C439.1 120.1 439.9 122.9 440.2 123.2C440.2 123.4 440.2 124 439.7 124.3ZM421.1 109.8H435.6V138.7H421.1V109.8Z" fill="#FF0000"/>
<path d="M482.2 196.6C481.1 199.1 478.9 199.9 477.5 199.9C475.8 199.9 470.8 199.6 470.8 186.5C470.8 186.5 470.8 160.1 470.8 158.4C470.8 149.8 464.1 142.8 446.9 142.8C428.3 142.8 428 152 428 154.2C427.7 156.7 429.1 159.5 433.8 159.5C438 159.5 439.1 154.8 439.6 153.1C440.2 151.2 440.4 145.6 447.9 145.6C454.3 145.6 458.2 151.2 458.5 159.2C458.5 160.6 458.5 161.4 458.5 162.3C458.5 162.9 458.5 163.1 458.5 163.7V164C457.9 166.8 456.6 168.2 454 169.3C450.7 171 440.9 172.4 439.8 172.6C435.9 173.4 425.1 176.2 425.3 187.6C425.6 198.7 436.7 202.6 444.5 202.3C452 202 456.5 199 458.4 197.3C459.5 196.5 459.5 196.5 460.3 197.6C461.4 198.7 465 202.3 473.7 202.3C482.6 202.3 483.7 198.1 484.3 196.7C484.8 196 482.8 195.2 482.2 196.6ZM447.5 199.7C439.7 199.7 437.8 193.3 437.8 190C437.8 186.9 439.5 180.5 447.3 176.1C447.3 176.1 450.9 173.9 457.9 171.1C458.2 171.1 458.5 171.1 458.5 171.1C458.5 171.1 458.8 171.4 458.8 171.7V172V172.3V184C458.6 193 454.2 199.7 447.5 199.7ZM421.9 199.4C420.8 199.1 413.8 200 413.8 178.8C413.8 157.6 413.8 112.3 413.8 112.3C413.8 111.5 413.8 109.2 411.3 109.2C408.8 109.2 392.1 110 391 110.3C389.9 110.3 389.1 111.7 391 111.7C392.9 112 401.8 112.5 401.8 127.3C401.8 134.5 401.8 141.8 401.8 147C401.8 147.3 401.8 147.6 401.8 147.6C401.8 148.2 401.8 148.4 401.5 148.7C401.5 148.7 401.5 148.7 401.5 149C401.2 149.3 400.9 149 400.1 148.4C398.7 147.3 392.3 143.4 384.2 143.4C371.1 143.4 355 152.9 355 172.3C355 193.2 369.7 203.2 385 203.2C392.5 203.2 397.8 199.9 399.7 198.7C401.9 197.3 401.6 197.6 401.9 199.5C402.2 200.9 401.9 203.7 405.8 203.4C410 202.8 420 201.7 421.9 201.5C424.1 200.8 423.6 199.7 421.9 199.4ZM387.4 200.2C375.2 200.2 368.8 185.7 368.8 171.8C368.8 156.5 377.4 146.2 386.6 146.8C398.6 147.6 401.6 157.1 401.9 174.1C401.9 175.2 401.9 176.3 401.9 177.7C401.6 194.4 394.6 200.2 387.4 200.2ZM354.9 196.6C353.8 199.1 351.6 199.9 350.2 199.9C348.5 199.9 343.5 199.6 343.5 186.5C343.5 186.5 343.5 160.1 343.5 158.4C343.5 149.8 336.8 142.8 319.6 142.8C301 142.8 300.7 152 300.7 154.2C300.4 156.7 301.8 159.5 306.5 159.5C310.7 159.5 311.8 154.8 312.3 153.1C312.9 151.2 313.1 145.6 320.6 145.6C327 145.6 331.2 151.2 331.2 159.5V159.8C331.2 160.1 331.2 160.4 331.2 160.4V161.2C331.2 161.5 331.2 162 331.2 162.3C330.9 166.5 329.8 167.9 326.5 169.5C323.2 171.2 313.4 172.6 312.3 172.8C308.4 173.6 297.6 176.4 297.8 187.8C298.1 198.9 309.2 202.8 317 202.5C324.5 202.2 329 199.2 330.9 197.5C332 196.7 332 196.7 332.8 197.8C333.9 198.9 337.5 202.5 346.2 202.5C355.1 202.5 356.2 198.3 356.8 196.9C357.4 196 355.7 195.2 354.9 196.6ZM320.4 199.7C312.6 199.7 310.7 193.3 310.7 190C310.7 186.9 312.4 180.5 320.2 176.1C320.2 176.1 323.8 173.9 330.8 171.1C331.1 171.1 331.4 171.1 331.4 171.1V171.4C331.4 171.7 331.4 172 331.4 172.5V172.2C331.4 172.2 331.4 172.2 331.4 172.5V184.2C331.2 193 326.8 199.7 320.4 199.7ZM293.7 199.4C291.5 198.8 287.6 196.3 287.6 184.1V161.8C287.6 156.5 288.2 142.9 267.3 142.9C256.5 142.9 250.3 148.5 249.8 148.7C249 149.5 248.4 149.8 248.1 148.4C247.8 147.3 247.3 145.6 247 144.5C246.7 143.7 246.2 142.8 244.2 143.1C242.3 143.4 230 145.3 227.8 145.9C225.9 146.5 226.4 147.3 227.8 147.6C229.2 147.9 235.9 148.4 235.9 159.8C235.9 171.2 235.9 183.7 235.9 183.7C235.9 197.6 233.1 198.7 230.6 199.6C227.3 200.4 228.9 201.5 230.3 201.5C230.3 201.5 255.1 201.5 255.6 201.5C257.3 201.5 258.1 199.8 254.8 199.3C251.5 198.7 248.4 196.8 248.4 185.9C248.4 184.8 248.4 172.8 248.4 170.6C248.4 164.8 247 147 263.1 146.7C274.5 146.4 275.6 155.9 275.6 162V185.6C275.6 195.3 272.8 198.4 269.5 199C266.4 199.6 267 200.9 268.7 200.9C269.3 200.9 294.6 200.9 294.6 200.9C295.9 201.6 297.3 200.2 293.7 199.4ZM226.1 196.6C225 199.1 222.8 199.9 221.4 199.9C219.7 199.9 214.7 199.6 214.7 186.5C214.7 186.5 214.7 160.1 214.7 158.4C214.7 149.8 208 142.8 190.8 142.8C172.2 142.8 171.9 152 171.9 154.2C171.6 156.7 173 159.5 177.7 159.5C181.9 159.5 183 154.8 183.5 153.1C184.1 151.2 184.3 145.6 191.8 145.6C198.2 145.6 202.1 151.2 202.4 159.2C202.4 160.6 202.4 161.4 202.4 162.3C202.4 162.9 202.4 163.4 202.1 163.7V164C201.5 166.8 200.2 168.2 197.6 169.3C194.3 171 184.5 172.4 183.4 172.6C179.5 173.4 168.7 176.2 168.9 187.6C169.2 198.7 180.3 202.6 188.1 202.3C195.6 202 200.1 199 202 197.3C203.1 196.5 203.1 196.5 203.9 197.6C205 198.7 208.6 202.3 217.3 202.3C226.2 202.3 227.3 198.1 227.9 196.7C228.6 196 226.6 195.2 226.1 196.6ZM191.3 199.7C183.5 199.7 181.6 193.3 181.6 190C181.6 186.7 183.3 180.5 191.1 176.1C191.1 176.1 194.7 173.9 201.7 171.1C202 171.1 202.3 171.1 202.3 171.1C202.3 171.1 202.6 171.4 202.6 171.7C202.6 171.7 202.6 172 202.6 172.3V172.6V184.3C202.4 193 198 199.7 191.3 199.7ZM164.6 175.5C161.8 184.4 156.5 198.9 137.3 199.4C117.3 199.7 105.3 186 104.8 160.7C104 133.7 115.6 113.1 133.7 112.6C154 112.3 161.2 136.5 161.5 140.1C161.8 142.9 165.4 142.6 165.4 139.8C165.4 138.4 163.7 114.5 163.2 111.7C162.6 108.9 160.4 110 159.9 111.1C159.6 111.9 160.2 110.3 159.1 112.8C158 115.3 154.9 113.9 153.8 113.6C150.5 112.2 144.1 108.9 133.8 109.1C110.2 109.7 85.9998 127.2 86.4998 157.8C87.0998 187.6 111 204.3 133.2 204C153.5 203.7 164.9 190.9 168.2 176.2C169.3 172.7 165.7 171.8 164.6 175.5Z" fill="black"/>
</svg>
